<svg xmlns="http://www.w3.org/2000/svg" width="314.394" height="378.76" viewBox="0 0 314.394 378.76">
  <g id="undraw_certificate_re_yadi" transform="translate(0.003 0)">
    <path id="Path_2" data-name="Path 2" d="M308.177,416.175a15.381,15.381,0,0,0,23.293,3.7l47.415,27.194-1.767-28.349-44.755-21.478a15.465,15.465,0,0,0-24.186,18.931Z" transform="translate(-305.93 -235.02)" fill="#ffb8b8"/>
    <path id="Path_3" data-name="Path 3" d="M549.89,628.383c-14.065,19.685-13.562,52.62-9.637,88.665h66.5l2.891-6.746,3.855,6.746h62.644s-4.819-91.556-13.492-94.448S549.89,628.383,549.89,628.383Z" transform="translate(-410.373 -338.288)" fill="#2f2e41"/>
    <circle id="Ellipse_1" data-name="Ellipse 1" cx="33.731" cy="33.731" r="33.731" transform="translate(162.647 16.961)" fill="#ffb8b8"/>
    <path id="Path_4" data-name="Path 4" d="M614.624,275.368l6.6,12.643,45.625,20.339L654.852,424.41,649.8,436.428l2.727,10.437-6.575,7.7c6.6,5.972,7.438,12.223,3.848,18.69l-21.01,4.813s-116.822,10.388-106.976-7.71c10.757-19.775,13.5-78.175-10.251-109.383-20.161-26.495-4.683-60.874-4.683-60.874l47.823-14.292,17.59-10.444Z" transform="translate(-393.866 -182.193)" fill="#3f3d56"/>
    <path id="Path_5" data-name="Path 5" d="M646.828,107.146a1.86,1.86,0,0,1,1.79-1.062c-15.443-.924-31.709.876-44.628,9.386-3.13,2.062-6.081,4.521-9.487,6.016a1.022,1.022,0,0,0-.209,1.739l.374.293a1.026,1.026,0,0,1-.334,1.788h0a1.026,1.026,0,0,0-.258,1.843L596.944,129a1.021,1.021,0,0,1,.009,1.718,5.09,5.09,0,0,1-.762.387,1.023,1.023,0,0,0-.324,1.719,10.19,10.19,0,0,1,2.774,4.055,26.13,26.13,0,0,1,1.289,7.847c.988-3.834,5.172-6.09,9.124-6.32s7.807,1.075,11.653,2.012a64.463,64.463,0,0,0,25.587.984c-2.889,5.8-.452,12.715,2,18.711l7.939-3.4c10.9-6.155,3.308,19.881-.768,23.456,8.323,2.886,30.108-29.141,23.1-41.29-3.646-6.319-1.058-14.47-8.225-20.464-3.513-3.7-10.526-2.054-14.107-5.128-1.409-1.21.739-4.446-1.2-5.151C654.391,107.9,646.934,106.909,646.828,107.146Z" transform="translate(-435.475 -105.865)" fill="#2f2e41"/>
    <path id="Path_6" data-name="Path 6" d="M491.042,300.308c-6.19,27.479-22.065,91.64-38.171,105.058a9.4,9.4,0,0,1-3.584,2.116c-56.613,13.792-74.753-21.389-74.753-21.389s15.172-7.393,15.556-21.845l30.6,9.493,26.671-60.021,3.925-3.661.022-.022Z" transform="translate(-336.824 -193.424)" fill="#3f3d56"/>
    <path id="Path_7" data-name="Path 7" d="M784.568,699.817a15.381,15.381,0,0,0-1.615-23.53l15.871-52.305-27.231,8.078-10.9,48.431a15.465,15.465,0,0,0,23.872,19.325Z" transform="translate(-509.642 -339.176)" fill="#ffb8b8"/>
    <path id="Path_8" data-name="Path 8" d="M773.334,330.044l12.579,2.926S837.905,434.129,825.377,453.4s-27.878,83.09-27.878,83.09-22.7-4.513-31.375-16.078l15.884-75.685-16.384-63.608Z" transform="translate(-512.934 -206.814)" fill="#3f3d56"/>
    <path id="Path_9" data-name="Path 9" d="M345.51,459.694l.452-162.923a12.452,12.452,0,0,1,12.472-12.4l123.043.341a12.452,12.452,0,0,1,12.4,12.472L493.428,460.1a12.452,12.452,0,0,1-12.472,12.4l-123.043-.341A12.452,12.452,0,0,1,345.51,459.694Z" transform="translate(-323.755 -186.245)" fill="#e6e6e6"/>
    <path id="Path_10" data-name="Path 10" d="M362.928,418.526l.29-104.742A11.661,11.661,0,0,1,374.9,302.168l105.745.293a11.662,11.662,0,0,1,11.617,11.681l-.4,144.98a11.662,11.662,0,0,1-11.681,11.616l-65.507-.181A51.945,51.945,0,0,1,362.928,418.526Z" transform="translate(-331.598 -194.261)" fill="#fff"/>
    <path id="Path_11" data-name="Path 11" d="M483.435,377.763H400.981a4.947,4.947,0,1,1,0-9.894h82.454a4.947,4.947,0,0,1,0,9.895Z" transform="translate(-346.506 -223.846)" fill="#4a78f6"/>
    <path id="Path_12" data-name="Path 12" d="M419.121,336.263h-18.14a4.947,4.947,0,0,1,0-9.895h18.14a4.947,4.947,0,1,1,0,9.895Z" transform="translate(-346.506 -205.159)" fill="#4a78f6"/>
    <path id="Path_13" data-name="Path 13" d="M483.435,419.262H400.981a4.947,4.947,0,1,1,0-9.894h82.454a4.947,4.947,0,0,1,0,9.895Z" transform="translate(-346.506 -242.534)" fill="#4a78f6"/>
    <path id="Path_14" data-name="Path 14" d="M483.435,460.763H400.981a4.947,4.947,0,0,1,0-9.895h82.454a4.947,4.947,0,0,1,0,9.895Z" transform="translate(-346.506 -261.222)" fill="#4a78f6"/>
    <circle id="Ellipse_2" data-name="Ellipse 2" cx="19.685" cy="19.685" r="19.685" transform="translate(110.573 220.28)" fill="#4a78f6"/>
    <path id="Path_15" data-name="Path 15" d="M531.819,544.259a2.189,2.189,0,0,1-1.752-.876l-5.37-7.161a2.19,2.19,0,1,1,3.5-2.627l3.513,4.684,9.024-13.536a2.19,2.19,0,0,1,3.644,2.429l-10.741,16.111a2.191,2.191,0,0,1-1.761.974Z" transform="translate(-404.246 -294.049)" fill="#fff"/>
    <circle id="Ellipse_3" data-name="Ellipse 3" cx="9.345" cy="9.345" r="9.345" transform="translate(78.937 41.504)" fill="#f2f2f2"/>
    <circle id="Ellipse_4" data-name="Ellipse 4" cx="9.345" cy="9.345" r="9.345" transform="translate(44.856 310.304)" fill="#f2f2f2"/>
    <circle id="Ellipse_5" data-name="Ellipse 5" cx="9.345" cy="9.345" r="9.345" transform="translate(259.786 77.783)" fill="#f2f2f2"/>
  </g>
</svg>
