<svg xmlns="http://www.w3.org/2000/svg" width="57.929" height="44.535" viewBox="0 0 57.929 44.535">
  <path id="book-alt" d="M55.327,2.415A8.24,8.24,0,0,0,49.394,1.1L34.477,3.376a10.229,10.229,0,0,0-5.513,2.6A10.225,10.225,0,0,0,23.452,3.37L8.535,1.1A8.282,8.282,0,0,0,2.6,2.41,5.734,5.734,0,0,0,0,7.068V41.12l28.964,4.416L57.929,41.12V7.068a5.72,5.72,0,0,0-2.6-4.653ZM26.551,41.051,4.827,37.746V7.068A1.912,1.912,0,0,1,5.7,5.516a2.761,2.761,0,0,1,1.978-.437L22.587,7.351a4.317,4.317,0,0,1,3.963,3.981ZM53.1,37.742,31.378,41.051V11.332a4.317,4.317,0,0,1,3.964-3.981L50.256,5.079a2.761,2.761,0,0,1,1.978.437A1.912,1.912,0,0,1,53.1,7.068Z" transform="translate(0 -1.001)" fill="#4a78f6"/>
</svg>
